<?xml version="1.0" encoding="UTF-8" standalone="no"?>
<!DOCTYPE svg PUBLIC "-//W3C//DTD SVG 1.1//EN"
 "http://www.w3.org/Graphics/SVG/1.1/DTD/svg11.dtd">
<!-- Generated by graphviz version 2.40.1 (20161225.0304)
 -->
<!-- Title: GG Pages: 1 -->
<svg width="2104pt" height="764pt"
 viewBox="0.00 0.00 2104.08 764.00" xmlns="http://www.w3.org/2000/svg" xmlns:xlink="http://www.w3.org/1999/xlink">
<g id="graph0" class="graph" transform="scale(1 1) rotate(0) translate(4 760)">
<title>GG</title>
<polygon fill="#ffffff" stroke="transparent" points="-4,4 -4,-760 2100.078,-760 2100.078,4 -4,4"/>
<!-- node996 -->
<g id="node1" class="node">
<title>node996</title>
<polygon fill="none" stroke="#000000" points="926.5369,-743.5623 826.6789,-756 726.8208,-743.5623 726.914,-723.4377 926.4437,-723.4377 926.5369,-743.5623"/>
<text text-anchor="middle" x="826.6789" y="-734.9" font-family="Times,serif" font-size="12.00" fill="#000000">ecall_conflict_enc1</text>
</g>
<!-- node2780 -->
<g id="node2" class="node">
<title>node2780</title>
<polygon fill="none" stroke="#000000" points="478.6789,-684 376.9649,-666 478.6789,-648 580.3928,-666 478.6789,-684"/>
<text text-anchor="middle" x="478.6789" y="-662.9" font-family="Times,serif" font-size="12.00" fill="#000000">oecryptombedtls</text>
</g>
<!-- node996&#45;&gt;node2780 -->
<g id="edge1" class="edge">
<title>node996&#45;&gt;node2780</title>
<path fill="none" stroke="#000000" d="M756.2559,-723.4297C691.296,-709.9897 596.0538,-690.2845 535.7293,-677.8035"/>
<polygon fill="#000000" stroke="#000000" points="536.1248,-674.3113 525.623,-675.7126 534.7065,-681.1661 536.1248,-674.3113"/>
</g>
<!-- node2904 -->
<g id="node8" class="node">
<title>node2904</title>
<polygon fill="none" stroke="#000000" points="932.6789,-324 886.3979,-306 932.6789,-288 978.9599,-306 932.6789,-324"/>
<text text-anchor="middle" x="932.6789" y="-302.9" font-family="Times,serif" font-size="12.00" fill="#000000">oelibc</text>
</g>
<!-- node996&#45;&gt;node2904 -->
<g id="edge22" class="edge">
<title>node996&#45;&gt;node2904</title>
<path fill="none" stroke="#000000" d="M892.9496,-723.3664C931.1429,-713.491 973.8751,-699.4707 985.6789,-684 1053.7064,-594.8393 1013.1064,-543.217 998.6789,-432 994.4213,-399.1796 995.1698,-389.2462 979.6789,-360 973.1342,-347.644 963.2651,-335.7193 954.2573,-326.2331"/>
<polygon fill="#000000" stroke="#000000" points="956.5063,-323.5298 946.9852,-318.8822 951.5299,-328.4528 956.5063,-323.5298"/>
</g>
<!-- node2764 -->
<g id="node14" class="node">
<title>node2764</title>
<polygon fill="none" stroke="#000000" points="882.6789,-684 788.6354,-666 882.6789,-648 976.7223,-666 882.6789,-684"/>
<text text-anchor="middle" x="882.6789" y="-662.9" font-family="Times,serif" font-size="12.00" fill="#000000">oedebugmalloc</text>
</g>
<!-- node996&#45;&gt;node2764 -->
<g id="edge18" class="edge">
<title>node996&#45;&gt;node2764</title>
<path fill="none" stroke="#000000" d="M838.0113,-723.4297C845.4989,-713.8029 855.4866,-700.9615 864.1187,-689.8631"/>
<polygon fill="#000000" stroke="#000000" points="867.0149,-691.8403 870.3916,-681.7979 861.4894,-687.5427 867.0149,-691.8403"/>
</g>
<!-- node2749 -->
<g id="node15" class="node">
<title>node2749</title>
<polygon fill="none" stroke="#000000" points="665.6789,-684 598.6108,-666 665.6789,-648 732.7469,-666 665.6789,-684"/>
<text text-anchor="middle" x="665.6789" y="-662.9" font-family="Times,serif" font-size="12.00" fill="#000000">oeenclave</text>
</g>
<!-- node996&#45;&gt;node2749 -->
<g id="edge20" class="edge">
<title>node996&#45;&gt;node2749</title>
<path fill="none" stroke="#000000" d="M794.0981,-723.4297C766.8922,-711.2631 728.2052,-693.9621 700.4147,-681.534"/>
<polygon fill="#000000" stroke="#000000" points="701.6336,-678.2451 691.076,-677.3577 698.7759,-684.6353 701.6336,-678.2451"/>
</g>
<!-- node2867 -->
<g id="node3" class="node">
<title>node2867</title>
<polygon fill="none" stroke="#000000" points="428.1789,-612 339.1789,-612 339.1789,-576 428.1789,-576 428.1789,-612"/>
<text text-anchor="middle" x="383.6789" y="-590.9" font-family="Times,serif" font-size="12.00" fill="#000000">mbedcrypto</text>
</g>
<!-- node2780&#45;&gt;node2867 -->
<g id="edge2" class="edge">
<title>node2780&#45;&gt;node2867</title>
<path fill="none" stroke="#000000" d="M458.9948,-651.0816C446.5466,-641.6471 430.1631,-629.2302 415.8566,-618.3873"/>
<polygon fill="#000000" stroke="#000000" points="417.8023,-615.4704 407.7185,-612.2195 413.5742,-621.0492 417.8023,-615.4704"/>
</g>
<!-- node2866 -->
<g id="node4" class="node">
<title>node2866</title>
<polygon fill="none" stroke="#000000" points="280.6789,-540 224.7449,-522 280.6789,-504 336.6129,-522 280.6789,-540"/>
<text text-anchor="middle" x="280.6789" y="-518.9" font-family="Times,serif" font-size="12.00" fill="#000000">mbedtls</text>
</g>
<!-- node2867&#45;&gt;node2866 -->
<g id="edge3" class="edge">
<title>node2867&#45;&gt;node2866</title>
<path fill="none" stroke="#000000" stroke-dasharray="1,5" d="M357.6876,-575.8314C342.244,-565.0358 322.706,-551.3782 307.1745,-540.5212"/>
<polygon fill="#000000" stroke="#000000" points="308.7553,-537.3559 298.5539,-534.4952 304.7447,-543.0931 308.7553,-537.3559"/>
</g>
<!-- node2863 -->
<g id="node5" class="node">
<title>node2863</title>
<polygon fill="none" stroke="#000000" points="133.6789,-468 65.1278,-450 133.6789,-432 202.2299,-450 133.6789,-468"/>
<text text-anchor="middle" x="133.6789" y="-446.9" font-family="Times,serif" font-size="12.00" fill="#000000">mbedx509</text>
</g>
<!-- node2866&#45;&gt;node2863 -->
<g id="edge4" class="edge">
<title>node2866&#45;&gt;node2863</title>
<path fill="none" stroke="#000000" d="M258.3527,-511.0647C233.9624,-499.1185 194.6468,-479.8618 166.6905,-466.1689"/>
<polygon fill="#000000" stroke="#000000" points="168.2033,-463.0127 157.6831,-461.7572 165.1242,-469.2991 168.2033,-463.0127"/>
</g>
<!-- node2865 -->
<g id="node6" class="node">
<title>node2865</title>
<polygon fill="none" stroke="#000000" points="122.6789,-396 11.3125,-378 122.6789,-360 234.0452,-378 122.6789,-396"/>
<text text-anchor="middle" x="122.6789" y="-374.9" font-family="Times,serif" font-size="12.00" fill="#000000">mbedcrypto_static</text>
</g>
<!-- node2863&#45;&gt;node2865 -->
<g id="edge5" class="edge">
<title>node2863&#45;&gt;node2865</title>
<path fill="none" stroke="#000000" d="M131.0161,-432.5708C129.7913,-424.5541 128.308,-414.8454 126.9341,-405.8526"/>
<polygon fill="#000000" stroke="#000000" points="130.3638,-405.1256 125.3936,-395.7689 123.444,-406.1828 130.3638,-405.1256"/>
</g>
<!-- node14 -->
<g id="node7" class="node">
<title>node14</title>
<polygon fill="none" stroke="#000000" points="1334.6789,-36 1248.6789,-36 1248.6789,0 1334.6789,0 1334.6789,-36"/>
<text text-anchor="middle" x="1291.6789" y="-14.9" font-family="Times,serif" font-size="12.00" fill="#000000">oe_includes</text>
</g>
<!-- node2865&#45;&gt;node14 -->
<g id="edge6" class="edge">
<title>node2865&#45;&gt;node14</title>
<path fill="none" stroke="#000000" d="M178.56,-368.951C200.1117,-365.7245 224.9949,-362.319 247.6789,-360 313.2365,-353.298 782.1387,-356.1224 839.6789,-324 890.9274,-295.39 877.2953,-260.4032 915.6789,-216 992.8329,-126.746 1029.8928,-117.6574 1138.6789,-72 1171.4654,-58.2395 1209.1184,-44.92 1238.8671,-34.9522"/>
<polygon fill="#000000" stroke="#000000" points="1240.2495,-38.181 1248.6343,-31.7045 1238.0408,-31.5386 1240.2495,-38.181"/>
</g>
<!-- node2865&#45;&gt;node2904 -->
<g id="edge7" class="edge">
<title>node2865&#45;&gt;node2904</title>
<path fill="none" stroke="#000000" d="M178.2455,-368.9592C199.868,-365.7141 224.8821,-362.2937 247.6789,-360 524.5193,-332.1459 598.666,-372.3056 872.6789,-324 881.3006,-322.4801 890.4329,-320.1362 898.9021,-317.6368"/>
<polygon fill="#000000" stroke="#000000" points="899.9539,-320.9752 908.4694,-314.6714 897.8815,-314.289 899.9539,-320.9752"/>
</g>
<!-- node2763 -->
<g id="node9" class="node">
<title>node2763</title>
<polygon fill="none" stroke="#000000" points="1050.6789,-180 1000.1926,-162 1050.6789,-144 1101.1652,-162 1050.6789,-180"/>
<text text-anchor="middle" x="1050.6789" y="-158.9" font-family="Times,serif" font-size="12.00" fill="#000000">oecore</text>
</g>
<!-- node2904&#45;&gt;node2763 -->
<g id="edge8" class="edge">
<title>node2904&#45;&gt;node2763</title>
<path fill="none" stroke="#000000" d="M951.724,-295.1133C967.4574,-285.3857 989.5819,-269.9276 1004.6789,-252 1020.871,-232.772 1033.3456,-206.8812 1041.1929,-187.8054"/>
<polygon fill="#000000" stroke="#000000" points="1044.5455,-188.8452 1044.9703,-178.2589 1038.0365,-186.2697 1044.5455,-188.8452"/>
</g>
<!-- node2850 -->
<g id="node11" class="node">
<title>node2850</title>
<polygon fill="none" stroke="#000000" points="950.6789,-36 842.6789,-36 842.6789,0 950.6789,0 950.6789,-36"/>
<text text-anchor="middle" x="896.6789" y="-14.9" font-family="Times,serif" font-size="12.00" fill="#000000">oelibc_includes</text>
</g>
<!-- node2904&#45;&gt;node2850 -->
<g id="edge14" class="edge">
<title>node2904&#45;&gt;node2850</title>
<path fill="none" stroke="#000000" d="M926.6648,-290.1755C922.8804,-279.539 918.2428,-265.1187 915.6789,-252 901.3424,-178.6446 897.7958,-90.3109 896.9373,-46.0981"/>
<polygon fill="#000000" stroke="#000000" points="900.4368,-46.0367 896.7752,-36.0948 893.4377,-46.1502 900.4368,-46.0367"/>
</g>
<!-- node2905 -->
<g id="node12" class="node">
<title>node2905</title>
<polygon fill="none" stroke="#000000" points="996.1789,-252 925.1789,-252 925.1789,-216 996.1789,-216 996.1789,-252"/>
<text text-anchor="middle" x="960.6789" y="-230.9" font-family="Times,serif" font-size="12.00" fill="#000000">oelibasm</text>
</g>
<!-- node2904&#45;&gt;node2905 -->
<g id="edge13" class="edge">
<title>node2904&#45;&gt;node2905</title>
<path fill="none" stroke="#000000" stroke-dasharray="5,2" d="M938.893,-290.0209C942.1215,-281.7188 946.1601,-271.3339 949.8801,-261.7683"/>
<polygon fill="#000000" stroke="#000000" points="953.2316,-262.8067 953.5941,-252.2181 946.7075,-260.2695 953.2316,-262.8067"/>
</g>
<!-- node2923 -->
<g id="node13" class="node">
<title>node2923</title>
<polygon fill="none" stroke="#000000" points="738.6789,-252 677.0571,-234 738.6789,-216 800.3006,-234 738.6789,-252"/>
<text text-anchor="middle" x="738.6789" y="-230.9" font-family="Times,serif" font-size="12.00" fill="#000000">oesyscall</text>
</g>
<!-- node2904&#45;&gt;node2923 -->
<g id="edge15" class="edge">
<title>node2904&#45;&gt;node2923</title>
<path fill="none" stroke="#000000" d="M908.8907,-297.1714C875.5917,-284.813 814.773,-262.2411 775.572,-247.6923"/>
<polygon fill="#000000" stroke="#000000" points="776.6943,-244.3756 766.1013,-244.1774 774.2587,-250.9382 776.6943,-244.3756"/>
</g>
<!-- node2763&#45;&gt;node14 -->
<g id="edge9" class="edge">
<title>node2763&#45;&gt;node14</title>
<path fill="none" stroke="#000000" d="M1069.5897,-150.7006C1108.9256,-127.197 1200.2552,-72.6266 1252.7244,-41.2757"/>
<polygon fill="#000000" stroke="#000000" points="1254.6338,-44.2121 1261.4229,-36.0782 1251.0433,-38.203 1254.6338,-44.2121"/>
</g>
<!-- node2810 -->
<g id="node10" class="node">
<title>node2810</title>
<polygon fill="none" stroke="#000000" points="1032.1789,-108 925.1789,-108 925.1789,-72 1032.1789,-72 1032.1789,-108"/>
<text text-anchor="middle" x="978.6789" y="-86.9" font-family="Times,serif" font-size="12.00" fill="#000000">oedlmalloc_obj</text>
</g>
<!-- node2763&#45;&gt;node2810 -->
<g id="edge10" class="edge">
<title>node2763&#45;&gt;node2810</title>
<path fill="none" stroke="#000000" d="M1037.1362,-148.4574C1027.7798,-139.1009 1015.0536,-126.3747 1003.864,-115.1851"/>
<polygon fill="#000000" stroke="#000000" points="1006.3296,-112.7009 996.7836,-108.1047 1001.3798,-117.6507 1006.3296,-112.7009"/>
</g>
<!-- node2810&#45;&gt;node14 -->
<g id="edge11" class="edge">
<title>node2810&#45;&gt;node14</title>
<path fill="none" stroke="#000000" stroke-dasharray="5,2" d="M1032.4478,-75.5449C1037.2537,-74.3202 1042.0502,-73.1222 1046.6789,-72 1112.6147,-56.0142 1189.0185,-39.4894 1238.7395,-29.0001"/>
<polygon fill="#000000" stroke="#000000" points="1239.5587,-32.4044 1248.6237,-26.9202 1238.1173,-25.5544 1239.5587,-32.4044"/>
</g>
<!-- node2810&#45;&gt;node2850 -->
<g id="edge12" class="edge">
<title>node2810&#45;&gt;node2850</title>
<path fill="none" stroke="#000000" stroke-dasharray="5,2" d="M957.9868,-71.8314C947.9841,-63.0485 935.8238,-52.3712 924.9789,-42.8489"/>
<polygon fill="#000000" stroke="#000000" points="927.1881,-40.1308 917.3643,-36.1628 922.5694,-45.3909 927.1881,-40.1308"/>
</g>
<!-- node2923&#45;&gt;node2763 -->
<g id="edge16" class="edge">
<title>node2923&#45;&gt;node2763</title>
<path fill="none" stroke="#000000" d="M773.2604,-226.0196C831.2729,-212.6321 947.9123,-185.7154 1009.8549,-171.4209"/>
<polygon fill="#000000" stroke="#000000" points="1010.715,-174.8145 1019.6718,-169.1555 1009.1409,-167.9938 1010.715,-174.8145"/>
</g>
<!-- node2923&#45;&gt;node2850 -->
<g id="edge17" class="edge">
<title>node2923&#45;&gt;node2850</title>
<path fill="none" stroke="#000000" stroke-dasharray="5,2" d="M749.5388,-219.1534C775.9349,-183.0678 843.7483,-90.3607 877.2937,-44.5012"/>
<polygon fill="#000000" stroke="#000000" points="880.2533,-46.3834 883.3324,-36.2458 874.6035,-42.2507 880.2533,-46.3834"/>
</g>
<!-- node2764&#45;&gt;node2763 -->
<g id="edge19" class="edge">
<title>node2764&#45;&gt;node2763</title>
<path fill="none" stroke="#000000" d="M925.8728,-656.1814C1022.2429,-631.6741 1253.6363,-557.7895 1346.6789,-396 1413.4779,-279.8447 1184.5586,-199.9181 1089.8397,-172.4817"/>
<polygon fill="#000000" stroke="#000000" points="1090.6173,-169.0641 1080.0411,-169.6925 1088.7008,-175.7966 1090.6173,-169.0641"/>
</g>
<!-- node2749&#45;&gt;node2904 -->
<g id="edge21" class="edge">
<title>node2749&#45;&gt;node2904</title>
<path fill="none" stroke="#000000" d="M666.5077,-647.8191C667.6793,-620.5085 669.6789,-567.2675 669.6789,-522 669.6789,-522 669.6789,-522 669.6789,-450 669.6789,-407.6937 668.9482,-387.982 700.6789,-360 759.2562,-308.343 796.9845,-343.2385 872.6789,-324 880.7718,-321.9431 889.4075,-319.5008 897.5324,-317.0894"/>
<polygon fill="#000000" stroke="#000000" points="898.5596,-320.4354 907.1188,-314.1912 896.5338,-313.7349 898.5596,-320.4354"/>
</g>
<!-- node1006 -->
<g id="node16" class="node">
<title>node1006</title>
<polygon fill="none" stroke="#000000" points="199.5369,-743.5623 99.6789,-756 -.1792,-743.5623 -.086,-723.4377 199.4437,-723.4377 199.5369,-743.5623"/>
<text text-anchor="middle" x="99.6789" y="-734.9" font-family="Times,serif" font-size="12.00" fill="#000000">ecall_conflict_enc2</text>
</g>
<!-- node1006&#45;&gt;node2780 -->
<g id="edge23" class="edge">
<title>node1006&#45;&gt;node2780</title>
<path fill="none" stroke="#000000" d="M176.3752,-723.4297C248.1327,-709.7977 353.8193,-689.72 419.3392,-677.273"/>
<polygon fill="#000000" stroke="#000000" points="420.3275,-680.6479 429.4986,-675.343 419.021,-673.7709 420.3275,-680.6479"/>
</g>
<!-- node1006&#45;&gt;node2904 -->
<g id="edge26" class="edge">
<title>node1006&#45;&gt;node2904</title>
<path fill="none" stroke="#000000" d="M104.0042,-723.3231C116.1606,-684.0228 153.8347,-574.6038 215.6789,-504 291.2148,-417.7651 321.4766,-397.8732 429.6789,-360 616.1254,-294.7395 678.558,-360.5832 872.6789,-324 881.1126,-322.4106 890.0481,-320.0907 898.3748,-317.6417"/>
<polygon fill="#000000" stroke="#000000" points="899.6273,-320.9183 908.1548,-314.6308 897.5676,-314.2281 899.6273,-320.9183"/>
</g>
<!-- node1006&#45;&gt;node2764 -->
<g id="edge24" class="edge">
<title>node1006&#45;&gt;node2764</title>
<path fill="none" stroke="#000000" d="M182.1129,-723.408C190.7294,-722.1382 199.3715,-720.9699 207.6789,-720 443.9459,-692.414 504.9283,-707.0714 741.6789,-684 766.8237,-681.5496 794.4065,-678.1805 818.4563,-675.0193"/>
<polygon fill="#000000" stroke="#000000" points="819.0779,-678.4675 828.5296,-673.6805 818.1556,-671.5285 819.0779,-678.4675"/>
</g>
<!-- node1006&#45;&gt;node2749 -->
<g id="edge25" class="edge">
<title>node1006&#45;&gt;node2749</title>
<path fill="none" stroke="#000000" d="M183.609,-723.4123C191.7319,-722.1809 199.8564,-721.0192 207.6789,-720 376.7798,-697.9686 421.4164,-711.7172 589.6789,-684 600.2233,-682.2631 611.4785,-679.8896 622.0074,-677.4361"/>
<polygon fill="#000000" stroke="#000000" points="622.9259,-680.8151 631.8326,-675.0775 621.2919,-674.0085 622.9259,-680.8151"/>
</g>
<!-- node1607 -->
<g id="node17" class="node">
<title>node1607</title>
<polygon fill="none" stroke="#000000" points="542.5081,-743.5623 513.6789,-756 484.8497,-743.5623 484.8766,-723.4377 542.4812,-723.4377 542.5081,-743.5623"/>
<text text-anchor="middle" x="513.6789" y="-734.9" font-family="Times,serif" font-size="12.00" fill="#000000">enc</text>
</g>
<!-- node1607&#45;&gt;node2780 -->
<g id="edge27" class="edge">
<title>node1607&#45;&gt;node2780</title>
<path fill="none" stroke="#000000" d="M506.5961,-723.4297C502.2222,-714.4321 496.4834,-702.6264 491.347,-692.0602"/>
<polygon fill="#000000" stroke="#000000" points="494.3756,-690.2846 486.8558,-682.8212 488.08,-693.345 494.3756,-690.2846"/>
</g>
<!-- node1607&#45;&gt;node2904 -->
<g id="edge30" class="edge">
<title>node1607&#45;&gt;node2904</title>
<path fill="none" stroke="#000000" d="M484.7924,-723.8762C481.7377,-722.5152 478.6592,-721.1975 475.6789,-720 428.7305,-701.1359 397.2631,-725.046 367.6789,-684 358.3235,-671.0201 359.3848,-661.6824 367.6789,-648 385.6094,-618.4206 415.6278,-639.4462 436.6789,-612 461.6165,-579.4865 456.6789,-562.9758 456.6789,-522 456.6789,-522 456.6789,-522 456.6789,-450 456.6789,-256.8164 684.7755,-368.8576 872.6789,-324 880.876,-322.0431 889.6084,-319.6216 897.8007,-317.1961"/>
<polygon fill="#000000" stroke="#000000" points="898.9011,-320.5198 907.4536,-314.2664 896.8681,-313.8215 898.9011,-320.5198"/>
</g>
<!-- node1607&#45;&gt;node2764 -->
<g id="edge28" class="edge">
<title>node1607&#45;&gt;node2764</title>
<path fill="none" stroke="#000000" d="M541.6114,-723.3667C544.6235,-722.105 547.6827,-720.9499 550.6789,-720 598.839,-704.7317 733.5709,-685.4333 815.843,-674.5281"/>
<polygon fill="#000000" stroke="#000000" points="816.3969,-677.9854 825.8536,-673.2083 815.4819,-671.0455 816.3969,-677.9854"/>
</g>
<!-- node1607&#45;&gt;node2749 -->
<g id="edge29" class="edge">
<title>node1607&#45;&gt;node2749</title>
<path fill="none" stroke="#000000" d="M542.7453,-723.8129C545.4252,-722.5189 548.1009,-721.2323 550.6789,-720 577.8427,-707.0157 608.734,-692.5255 631.6549,-681.8267"/>
<polygon fill="#000000" stroke="#000000" points="633.3725,-684.8877 640.9561,-677.4891 630.4139,-678.5436 633.3725,-684.8877"/>
</g>
<!-- node1608 -->
<g id="node18" class="node">
<title>node1608</title>
<polygon fill="none" stroke="#000000" points="709.3168,-743.5623 634.6789,-756 560.041,-743.5623 560.1106,-723.4377 709.2471,-723.4377 709.3168,-743.5623"/>
<text text-anchor="middle" x="634.6789" y="-734.9" font-family="Times,serif" font-size="12.00" fill="#000000">enc_unsigned</text>
</g>
<!-- node1608&#45;&gt;node2780 -->
<g id="edge31" class="edge">
<title>node1608&#45;&gt;node2780</title>
<path fill="none" stroke="#000000" d="M603.1099,-723.4297C578.0534,-711.8652 542.9462,-695.6618 516.4085,-683.4137"/>
<polygon fill="#000000" stroke="#000000" points="517.6,-680.1088 507.0537,-679.0961 514.6666,-686.4646 517.6,-680.1088"/>
</g>
<!-- node1608&#45;&gt;node2904 -->
<g id="edge34" class="edge">
<title>node1608&#45;&gt;node2904</title>
<path fill="none" stroke="#000000" d="M690.2098,-723.3384C709.9778,-715.1527 730.1726,-702.6954 741.6789,-684 817.1785,-561.3279 645.5127,-473.9095 733.6789,-360 772.7393,-309.5344 811.2165,-341.1718 872.6789,-324 880.5591,-321.7984 888.9896,-319.3362 896.9664,-316.9567"/>
<polygon fill="#000000" stroke="#000000" points="898.1844,-320.2453 906.7522,-314.0128 896.1678,-313.5421 898.1844,-320.2453"/>
</g>
<!-- node1608&#45;&gt;node2764 -->
<g id="edge32" class="edge">
<title>node1608&#45;&gt;node2764</title>
<path fill="none" stroke="#000000" d="M684.8654,-723.4297C728.8534,-710.659 792.3263,-692.2314 835.4207,-679.7201"/>
<polygon fill="#000000" stroke="#000000" points="836.4738,-683.059 845.1014,-676.9096 834.5221,-676.3365 836.4738,-683.059"/>
</g>
<!-- node1608&#45;&gt;node2749 -->
<g id="edge33" class="edge">
<title>node1608&#45;&gt;node2749</title>
<path fill="none" stroke="#000000" d="M640.9522,-723.4297C644.8804,-714.3062 650.0516,-702.2956 654.6491,-691.6176"/>
<polygon fill="#000000" stroke="#000000" points="657.9179,-692.876 658.6578,-682.307 651.4885,-690.1077 657.9179,-692.876"/>
</g>
<!-- node109 -->
<g id="node19" class="node">
<title>node109</title>
<polygon fill="none" stroke="#000000" points="1811.032,-167.5623 1763.6789,-180 1716.3257,-167.5623 1716.3699,-147.4377 1810.9878,-147.4377 1811.032,-167.5623"/>
<text text-anchor="middle" x="1763.6789" y="-158.9" font-family="Times,serif" font-size="12.00" fill="#000000">logging</text>
</g>
<!-- node39 -->
<g id="node20" class="node">
<title>node39</title>
<polygon fill="none" stroke="#000000" points="1719.6789,-108 1671.1736,-90 1719.6789,-72 1768.1841,-90 1719.6789,-108"/>
<text text-anchor="middle" x="1719.6789" y="-86.9" font-family="Times,serif" font-size="12.00" fill="#000000">oehost</text>
</g>
<!-- node109&#45;&gt;node39 -->
<g id="edge35" class="edge">
<title>node109&#45;&gt;node39</title>
<path fill="none" stroke="#000000" d="M1754.7748,-147.4297C1748.8501,-137.7348 1740.9332,-124.7798 1734.1182,-113.628"/>
<polygon fill="#000000" stroke="#000000" points="1736.9217,-111.5035 1728.7207,-104.7957 1730.9488,-115.1537 1736.9217,-111.5035"/>
</g>
<!-- node39&#45;&gt;node14 -->
<g id="edge36" class="edge">
<title>node39&#45;&gt;node14</title>
<path fill="none" stroke="#000000" d="M1694.8242,-81.1714C1684.6606,-77.8551 1672.7172,-74.3285 1661.6789,-72 1525.0979,-43.1887 1486.2598,-64.8113 1349.6789,-36 1348.0122,-35.6484 1346.3248,-35.2695 1344.6261,-34.8681"/>
<polygon fill="#000000" stroke="#000000" points="1345.3927,-31.4516 1334.8367,-32.3575 1343.6537,-38.2321 1345.3927,-31.4516"/>
</g>
<!-- node3015 -->
<g id="node21" class="node">
<title>node3015</title>
<polygon fill="none" stroke="#000000" points="1778.6789,-36 1700.6789,-36 1700.6789,0 1778.6789,0 1778.6789,-36"/>
<text text-anchor="middle" x="1739.6789" y="-14.9" font-family="Times,serif" font-size="12.00" fill="#000000">oedebugrt</text>
</g>
<!-- node39&#45;&gt;node3015 -->
<g id="edge37" class="edge">
<title>node39&#45;&gt;node3015</title>
<path fill="none" stroke="#000000" stroke-dasharray="5,2" d="M1724.2172,-73.6621C1726.5024,-65.4353 1729.3365,-55.2325 1731.9517,-45.8179"/>
<polygon fill="#000000" stroke="#000000" points="1735.3629,-46.6143 1734.6671,-36.0423 1728.6183,-44.7407 1735.3629,-46.6143"/>
</g>
<!-- node3036 -->
<g id="node22" class="node">
<title>node3036</title>
<ellipse fill="none" stroke="#000000" cx="1443.6789" cy="-18" rx="84.902" ry="18"/>
<text text-anchor="middle" x="1443.6789" y="-14.9" font-family="Times,serif" font-size="12.00" fill="#000000">openenclave::crypto</text>
</g>
<!-- node39&#45;&gt;node3036 -->
<g id="edge38" class="edge">
<title>node39&#45;&gt;node3036</title>
<path fill="none" stroke="#000000" stroke-dasharray="5,2" d="M1693.5002,-81.5217C1683.5717,-78.3995 1672.1395,-74.9161 1661.6789,-72 1611.5025,-58.0122 1554.3277,-43.9178 1511.1233,-33.6373"/>
<polygon fill="#000000" stroke="#000000" points="1511.829,-30.2077 1501.2913,-31.3062 1510.214,-37.0188 1511.829,-30.2077"/>
</g>
<!-- node3037 -->
<g id="node23" class="node">
<title>node3037</title>
<ellipse fill="none" stroke="#000000" cx="1614.6789" cy="-18" rx="67.9298" ry="18"/>
<text text-anchor="middle" x="1614.6789" y="-14.9" font-family="Times,serif" font-size="12.00" fill="#000000">openenclave::dl</text>
</g>
<!-- node39&#45;&gt;node3037 -->
<g id="edge39" class="edge">
<title>node39&#45;&gt;node3037</title>
<path fill="none" stroke="#000000" stroke-dasharray="5,2" d="M1702.3403,-78.1107C1687.6235,-68.0192 1666.0847,-53.2497 1648.0405,-40.8766"/>
<polygon fill="#000000" stroke="#000000" points="1649.735,-37.7947 1639.5084,-35.0259 1645.7763,-43.5678 1649.735,-37.7947"/>
</g>
<!-- node146 -->
<g id="node24" class="node">
<title>node146</title>
<polygon fill="none" stroke="#000000" points="1698.3792,-167.5623 1656.6789,-180 1614.9785,-167.5623 1615.0174,-147.4377 1698.3403,-147.4377 1698.3792,-167.5623"/>
<text text-anchor="middle" x="1656.6789" y="-158.9" font-family="Times,serif" font-size="12.00" fill="#000000">oecert</text>
</g>
<!-- node146&#45;&gt;node39 -->
<g id="edge40" class="edge">
<title>node146&#45;&gt;node39</title>
<path fill="none" stroke="#000000" d="M1669.4279,-147.4297C1678.4255,-137.1467 1690.6324,-123.196 1700.7618,-111.6195"/>
<polygon fill="#000000" stroke="#000000" points="1703.4265,-113.8892 1707.3776,-104.0586 1698.1585,-109.2796 1703.4265,-113.8892"/>
</g>
<!-- node177 -->
<g id="node25" class="node">
<title>node177</title>
<polygon fill="none" stroke="#000000" points="1964.6211,-167.5623 1896.6789,-180 1828.7366,-167.5623 1828.8,-147.4377 1964.5577,-147.4377 1964.6211,-167.5623"/>
<text text-anchor="middle" x="1896.6789" y="-158.9" font-family="Times,serif" font-size="12.00" fill="#000000">oecertdump</text>
</g>
<!-- node177&#45;&gt;node39 -->
<g id="edge42" class="edge">
<title>node177&#45;&gt;node39</title>
<path fill="none" stroke="#000000" d="M1860.8603,-147.4297C1829.1398,-134.5265 1783.2229,-115.8484 1752.4548,-103.3326"/>
<polygon fill="#000000" stroke="#000000" points="1753.6165,-100.0267 1743.0347,-99.5007 1750.9789,-106.5108 1753.6165,-100.0267"/>
</g>
<!-- node3038 -->
<g id="node26" class="node">
<title>node3038</title>
<ellipse fill="none" stroke="#000000" cx="1896.6789" cy="-90" rx="64.7736" ry="18"/>
<text text-anchor="middle" x="1896.6789" y="-86.9" font-family="Times,serif" font-size="12.00" fill="#000000">OpenSSL::SSL</text>
</g>
<!-- node177&#45;&gt;node3038 -->
<g id="edge41" class="edge">
<title>node177&#45;&gt;node3038</title>
<path fill="none" stroke="#000000" d="M1896.6789,-147.4297C1896.6789,-139.1011 1896.6789,-128.3665 1896.6789,-118.436"/>
<polygon fill="#000000" stroke="#000000" points="1900.179,-118.1279 1896.6789,-108.128 1893.179,-118.128 1900.179,-118.1279"/>
</g>
<!-- node1682 -->
<g id="node27" class="node">
<title>node1682</title>
<polygon fill="none" stroke="#000000" points="1075.6789,-396 1027.1736,-378 1075.6789,-360 1124.1841,-378 1075.6789,-396"/>
<text text-anchor="middle" x="1075.6789" y="-374.9" font-family="Times,serif" font-size="12.00" fill="#000000">oecpio</text>
</g>
<!-- node1682&#45;&gt;node2904 -->
<g id="edge44" class="edge">
<title>node1682&#45;&gt;node2904</title>
<path fill="none" stroke="#000000" stroke-dasharray="5,2" d="M1054.8854,-367.5306C1030.4945,-355.2498 989.8838,-334.8025 962.2283,-320.8781"/>
<polygon fill="#000000" stroke="#000000" points="963.5401,-317.62 953.0344,-316.2489 960.3921,-323.8722 963.5401,-317.62"/>
</g>
<!-- node1682&#45;&gt;node2763 -->
<g id="edge43" class="edge">
<title>node1682&#45;&gt;node2763</title>
<path fill="none" stroke="#000000" stroke-dasharray="5,2" d="M1073.6753,-360.6889C1069.3417,-323.2465 1059.0679,-234.4812 1053.8451,-189.356"/>
<polygon fill="#000000" stroke="#000000" points="1057.3186,-188.9248 1052.692,-179.3935 1050.365,-189.7296 1057.3186,-188.9248"/>
</g>
<!-- node2792 -->
<g id="node28" class="node">
<title>node2792</title>
<polygon fill="none" stroke="#000000" points="1480.6789,-612 1380.4473,-594 1480.6789,-576 1580.9104,-594 1480.6789,-612"/>
<text text-anchor="middle" x="1480.6789" y="-590.9" font-family="Times,serif" font-size="12.00" fill="#000000">oecryptoopenssl</text>
</g>
<!-- node2893 -->
<g id="node29" class="node">
<title>node2893</title>
<polygon fill="none" stroke="#000000" points="1511.6789,-540 1449.6789,-540 1449.6789,-504 1511.6789,-504 1511.6789,-540"/>
<text text-anchor="middle" x="1480.6789" y="-518.9" font-family="Times,serif" font-size="12.00" fill="#000000">openssl</text>
</g>
<!-- node2792&#45;&gt;node2893 -->
<g id="edge45" class="edge">
<title>node2792&#45;&gt;node2893</title>
<path fill="none" stroke="#000000" d="M1480.6789,-575.8314C1480.6789,-568.131 1480.6789,-558.9743 1480.6789,-550.4166"/>
<polygon fill="#000000" stroke="#000000" points="1484.179,-550.4132 1480.6789,-540.4133 1477.179,-550.4133 1484.179,-550.4132"/>
</g>
<!-- node2887 -->
<g id="node30" class="node">
<title>node2887</title>
<polygon fill="none" stroke="#000000" points="1481.6789,-396 1393.8234,-378 1481.6789,-360 1569.5344,-378 1481.6789,-396"/>
<text text-anchor="middle" x="1481.6789" y="-374.9" font-family="Times,serif" font-size="12.00" fill="#000000">opensslcrypto</text>
</g>
<!-- node2893&#45;&gt;node2887 -->
<g id="edge46" class="edge">
<title>node2893&#45;&gt;node2887</title>
<path fill="none" stroke="#000000" stroke-dasharray="1,5" d="M1468.4972,-503.882C1462.4473,-493.7891 1455.7811,-480.7221 1452.6789,-468 1448.8884,-452.4555 1448.776,-447.5167 1452.6789,-432 1455.2219,-421.8897 1460.0657,-411.6092 1465.0768,-402.7695"/>
<polygon fill="#000000" stroke="#000000" points="1468.109,-404.5187 1470.27,-394.1466 1462.1125,-400.9072 1468.109,-404.5187"/>
</g>
<!-- node2882 -->
<g id="node31" class="node">
<title>node2882</title>
<polygon fill="none" stroke="#000000" points="1528.6789,-468 1461.6108,-450 1528.6789,-432 1595.7469,-450 1528.6789,-468"/>
<text text-anchor="middle" x="1528.6789" y="-446.9" font-family="Times,serif" font-size="12.00" fill="#000000">opensslssl</text>
</g>
<!-- node2893&#45;&gt;node2882 -->
<g id="edge49" class="edge">
<title>node2893&#45;&gt;node2882</title>
<path fill="none" stroke="#000000" stroke-dasharray="1,5" d="M1492.7913,-503.8314C1498.8301,-494.7731 1506.2123,-483.6999 1512.7077,-473.9568"/>
<polygon fill="#000000" stroke="#000000" points="1515.7247,-475.741 1518.3596,-465.479 1509.9003,-471.858 1515.7247,-475.741"/>
</g>
<!-- node2887&#45;&gt;node14 -->
<g id="edge47" class="edge">
<title>node2887&#45;&gt;node14</title>
<path fill="none" stroke="#000000" d="M1470.6776,-362.0678C1448.1524,-329.0561 1395.8588,-250.3833 1359.6789,-180 1336.173,-134.2724 1314.1403,-78.5277 1301.8318,-45.7827"/>
<polygon fill="#000000" stroke="#000000" points="1305.1052,-44.5434 1298.3332,-36.3954 1298.5459,-46.9881 1305.1052,-44.5434"/>
</g>
<!-- node2887&#45;&gt;node2904 -->
<g id="edge48" class="edge">
<title>node2887&#45;&gt;node2904</title>
<path fill="none" stroke="#000000" d="M1428.4652,-370.8693C1403.6177,-367.5488 1373.6371,-363.5554 1346.6789,-360 1212.5005,-342.3041 1053.8148,-321.6951 977.7509,-311.8362"/>
<polygon fill="#000000" stroke="#000000" points="977.9444,-308.3321 967.5775,-310.5179 977.0447,-315.2741 977.9444,-308.3321"/>
</g>
<!-- node2882&#45;&gt;node2887 -->
<g id="edge50" class="edge">
<title>node2882&#45;&gt;node2887</title>
<path fill="none" stroke="#000000" d="M1518.4806,-434.3771C1512.406,-425.0713 1504.5633,-413.057 1497.6796,-402.5117"/>
<polygon fill="#000000" stroke="#000000" points="1500.5798,-400.5516 1492.1827,-394.091 1494.7181,-404.378 1500.5798,-400.5516"/>
</g>
<!-- node2974 -->
<g id="node32" class="node">
<title>node2974</title>
<polygon fill="none" stroke="#000000" points="418.6789,-324 343.9403,-306 418.6789,-288 493.4174,-306 418.6789,-324"/>
<text text-anchor="middle" x="418.6789" y="-302.9" font-family="Times,serif" font-size="12.00" fill="#000000">oehostepoll</text>
</g>
<!-- node2974&#45;&gt;node2923 -->
<g id="edge51" class="edge">
<title>node2974&#45;&gt;node2923</title>
<path fill="none" stroke="#000000" stroke-dasharray="5,2" d="M457.5972,-297.2434C517.0803,-283.8597 630.332,-258.378 693.4065,-244.1863"/>
<polygon fill="#000000" stroke="#000000" points="694.4684,-247.5349 703.4562,-241.9251 692.9317,-240.7057 694.4684,-247.5349"/>
</g>
<!-- node2944 -->
<g id="node33" class="node">
<title>node2944</title>
<polygon fill="none" stroke="#000000" points="569.6789,-324 511.5218,-306 569.6789,-288 627.836,-306 569.6789,-324"/>
<text text-anchor="middle" x="569.6789" y="-302.9" font-family="Times,serif" font-size="12.00" fill="#000000">oehostfs</text>
</g>
<!-- node2944&#45;&gt;node2923 -->
<g id="edge52" class="edge">
<title>node2944&#45;&gt;node2923</title>
<path fill="none" stroke="#000000" stroke-dasharray="5,2" d="M594.2529,-295.5306C623.1244,-283.2303 671.2255,-262.7375 703.9123,-248.8118"/>
<polygon fill="#000000" stroke="#000000" points="705.6953,-251.8566 713.5233,-244.7172 702.9516,-245.4167 705.6953,-251.8566"/>
</g>
<!-- node30 -->
<g id="node34" class="node">
<title>node30</title>
<polygon fill="none" stroke="#000000" points="1411.6789,-108 1347.3342,-90 1411.6789,-72 1476.0235,-90 1411.6789,-108"/>
<text text-anchor="middle" x="1411.6789" y="-86.9" font-family="Times,serif" font-size="12.00" fill="#000000">oehostmr</text>
</g>
<!-- node30&#45;&gt;node14 -->
<g id="edge53" class="edge">
<title>node30&#45;&gt;node14</title>
<path fill="none" stroke="#000000" d="M1391.0501,-77.6228C1374.4722,-67.676 1350.7147,-53.4215 1330.5862,-41.3444"/>
<polygon fill="#000000" stroke="#000000" points="1332.2993,-38.2906 1321.9236,-36.1468 1328.6978,-44.2931 1332.2993,-38.2906"/>
</g>
<!-- node30&#45;&gt;node3036 -->
<g id="edge54" class="edge">
<title>node30&#45;&gt;node3036</title>
<path fill="none" stroke="#000000" stroke-dasharray="5,2" d="M1418.9402,-73.6621C1422.6743,-65.2603 1427.3244,-54.7974 1431.5819,-45.2181"/>
<polygon fill="#000000" stroke="#000000" points="1434.7969,-46.602 1435.6601,-36.0423 1428.4003,-43.759 1434.7969,-46.602"/>
</g>
<!-- node2954 -->
<g id="node35" class="node">
<title>node2954</title>
<polygon fill="none" stroke="#000000" points="738.6789,-324 646.6172,-306 738.6789,-288 830.7405,-306 738.6789,-324"/>
<text text-anchor="middle" x="738.6789" y="-302.9" font-family="Times,serif" font-size="12.00" fill="#000000">oehostresolver</text>
</g>
<!-- node2954&#45;&gt;node2923 -->
<g id="edge55" class="edge">
<title>node2954&#45;&gt;node2923</title>
<path fill="none" stroke="#000000" stroke-dasharray="5,2" d="M738.6789,-287.8314C738.6789,-280.131 738.6789,-270.9743 738.6789,-262.4166"/>
<polygon fill="#000000" stroke="#000000" points="742.179,-262.4132 738.6789,-252.4133 735.179,-262.4133 742.179,-262.4132"/>
</g>
<!-- node2964 -->
<g id="node36" class="node">
<title>node2964</title>
<polygon fill="none" stroke="#000000" points="252.6789,-324 179.4226,-306 252.6789,-288 325.9351,-306 252.6789,-324"/>
<text text-anchor="middle" x="252.6789" y="-302.9" font-family="Times,serif" font-size="12.00" fill="#000000">oehostsock</text>
</g>
<!-- node2964&#45;&gt;node2923 -->
<g id="edge56" class="edge">
<title>node2964&#45;&gt;node2923</title>
<path fill="none" stroke="#000000" stroke-dasharray="5,2" d="M290.1047,-297.0973C304.0464,-293.9625 320.038,-290.5808 334.6789,-288 458.5627,-266.1627 605.2046,-248.6144 683.2606,-239.9285"/>
<polygon fill="#000000" stroke="#000000" points="683.7966,-243.3907 693.3513,-238.8126 683.0271,-236.4331 683.7966,-243.3907"/>
</g>
<!-- node40 -->
<g id="node37" class="node">
<title>node40</title>
<polygon fill="none" stroke="#000000" points="1573.6789,-108 1494.2342,-90 1573.6789,-72 1653.1235,-90 1573.6789,-108"/>
<text text-anchor="middle" x="1573.6789" y="-86.9" font-family="Times,serif" font-size="12.00" fill="#000000">oehostverify</text>
</g>
<!-- node40&#45;&gt;node14 -->
<g id="edge57" class="edge">
<title>node40&#45;&gt;node14</title>
<path fill="none" stroke="#000000" d="M1533.4201,-81.1163C1488.4267,-70.9974 1413.5074,-53.5785 1349.6789,-36 1348.0366,-35.5477 1346.3707,-35.0808 1344.6905,-34.603"/>
<polygon fill="#000000" stroke="#000000" points="1345.5589,-31.2105 1334.979,-31.7718 1343.5997,-37.9308 1345.5589,-31.2105"/>
</g>
<!-- node40&#45;&gt;node3036 -->
<g id="edge58" class="edge">
<title>node40&#45;&gt;node3036</title>
<path fill="none" stroke="#000000" stroke-dasharray="5,2" d="M1550.4375,-77.1278C1531.6944,-66.7471 1504.9179,-51.917 1482.8708,-39.7063"/>
<polygon fill="#000000" stroke="#000000" points="1484.5043,-36.6101 1474.0606,-34.8268 1481.1128,-42.7337 1484.5043,-36.6101"/>
</g>
<!-- node40&#45;&gt;node3037 -->
<g id="edge59" class="edge">
<title>node40&#45;&gt;node3037</title>
<path fill="none" stroke="#000000" stroke-dasharray="5,2" d="M1582.7781,-74.0209C1587.6409,-65.4813 1593.7587,-54.7378 1599.3328,-44.9491"/>
<polygon fill="#000000" stroke="#000000" points="1602.5448,-46.3816 1604.4518,-35.9597 1596.4619,-42.9176 1602.5448,-46.3816"/>
</g>
<!-- node2914 -->
<g id="node38" class="node">
<title>node2914</title>
<polygon fill="none" stroke="#000000" points="932.6789,-468 875.2634,-450 932.6789,-432 990.0943,-450 932.6789,-468"/>
<text text-anchor="middle" x="932.6789" y="-446.9" font-family="Times,serif" font-size="12.00" fill="#000000">oelibcxx</text>
</g>
<!-- node2823 -->
<g id="node39" class="node">
<title>node2823</title>
<polygon fill="none" stroke="#000000" points="796.6789,-396 742.6789,-396 742.6789,-360 796.6789,-360 796.6789,-396"/>
<text text-anchor="middle" x="769.6789" y="-374.9" font-family="Times,serif" font-size="12.00" fill="#000000">libcxx</text>
</g>
<!-- node2914&#45;&gt;node2823 -->
<g id="edge60" class="edge">
<title>node2914&#45;&gt;node2823</title>
<path fill="none" stroke="#000000" d="M907.1761,-439.6976C883.2008,-429.8947 846.1561,-414.4482 805.9029,-395.9836"/>
<polygon fill="#000000" stroke="#000000" points="807.2652,-392.7576 796.719,-391.7435 804.331,-399.113 807.2652,-392.7576"/>
</g>
<!-- node2830 -->
<g id="node40" class="node">
<title>node2830</title>
<polygon fill="none" stroke="#000000" points="876.6789,-396 814.6789,-396 814.6789,-360 876.6789,-360 876.6789,-396"/>
<text text-anchor="middle" x="845.6789" y="-374.9" font-family="Times,serif" font-size="12.00" fill="#000000">libcxxrt</text>
</g>
<!-- node2914&#45;&gt;node2830 -->
<g id="edge62" class="edge">
<title>node2914&#45;&gt;node2830</title>
<path fill="none" stroke="#000000" d="M916.7217,-436.7941C905.1578,-427.2239 889.1823,-414.0028 875.309,-402.5215"/>
<polygon fill="#000000" stroke="#000000" points="877.3682,-399.6825 867.4327,-396.0032 872.9052,-405.0753 877.3682,-399.6825"/>
</g>
<!-- node2840 -->
<g id="node41" class="node">
<title>node2840</title>
<polygon fill="none" stroke="#000000" points="970.6789,-396 894.6789,-396 894.6789,-360 970.6789,-360 970.6789,-396"/>
<text text-anchor="middle" x="932.6789" y="-374.9" font-family="Times,serif" font-size="12.00" fill="#000000">libunwind</text>
</g>
<!-- node2914&#45;&gt;node2840 -->
<g id="edge64" class="edge">
<title>node2914&#45;&gt;node2840</title>
<path fill="none" stroke="#000000" d="M932.6789,-431.8314C932.6789,-424.131 932.6789,-414.9743 932.6789,-406.4166"/>
<polygon fill="#000000" stroke="#000000" points="936.179,-406.4132 932.6789,-396.4133 929.179,-406.4133 936.179,-406.4132"/>
</g>
<!-- node2823&#45;&gt;node2904 -->
<g id="edge61" class="edge">
<title>node2823&#45;&gt;node2904</title>
<path fill="none" stroke="#000000" d="M796.719,-364.2565C799.7293,-362.7932 802.761,-361.3483 805.6789,-360 837.5001,-345.2965 874.4309,-329.7615 900.237,-319.148"/>
<polygon fill="#000000" stroke="#000000" points="901.6221,-322.363 909.5489,-315.3333 898.9684,-315.8854 901.6221,-322.363"/>
</g>
<!-- node2830&#45;&gt;node2904 -->
<g id="edge63" class="edge">
<title>node2830&#45;&gt;node2904</title>
<path fill="none" stroke="#000000" d="M867.6326,-359.8314C880.516,-349.1693 896.7728,-335.7154 909.8111,-324.9251"/>
<polygon fill="#000000" stroke="#000000" points="912.3741,-327.3471 917.8466,-318.275 907.9111,-321.9543 912.3741,-327.3471"/>
</g>
<!-- node2840&#45;&gt;node2904 -->
<g id="edge65" class="edge">
<title>node2840&#45;&gt;node2904</title>
<path fill="none" stroke="#000000" d="M932.6789,-359.8314C932.6789,-352.131 932.6789,-342.9743 932.6789,-334.4166"/>
<polygon fill="#000000" stroke="#000000" points="936.179,-334.4132 932.6789,-324.4133 929.179,-334.4133 936.179,-334.4132"/>
</g>
<!-- node2719 -->
<g id="node42" class="node">
<title>node2719</title>
<polygon fill="none" stroke="#000000" points="1677.2924,-743.5623 1638.6789,-756 1600.0654,-743.5623 1600.1014,-723.4377 1677.2563,-723.4377 1677.2924,-743.5623"/>
<text text-anchor="middle" x="1638.6789" y="-734.9" font-family="Times,serif" font-size="12.00" fill="#000000">oesgx</text>
</g>
<!-- node2729 -->
<g id="node43" class="node">
<title>node2729</title>
<polygon fill="none" stroke="#000000" points="1454.4008,-167.5623 1411.6789,-180 1368.957,-167.5623 1368.9968,-147.4377 1454.3609,-147.4377 1454.4008,-167.5623"/>
<text text-anchor="middle" x="1411.6789" y="-158.9" font-family="Times,serif" font-size="12.00" fill="#000000">oesign</text>
</g>
<!-- node2729&#45;&gt;node30 -->
<g id="edge66" class="edge">
<title>node2729&#45;&gt;node30</title>
<path fill="none" stroke="#000000" d="M1411.6789,-147.4297C1411.6789,-139.1011 1411.6789,-128.3665 1411.6789,-118.436"/>
<polygon fill="#000000" stroke="#000000" points="1415.179,-118.1279 1411.6789,-108.128 1408.179,-118.128 1415.179,-118.1279"/>
</g>
<!-- node252 -->
<g id="node44" class="node">
<title>node252</title>
<polygon fill="none" stroke="#000000" points="1824.1789,-756 1695.1789,-756 1695.1789,-720 1824.1789,-720 1824.1789,-756"/>
<text text-anchor="middle" x="1759.6789" y="-734.9" font-family="Times,serif" font-size="12.00" fill="#000000">oesign_test_engine</text>
</g>
<!-- node2877 -->
<g id="node45" class="node">
<title>node2877</title>
<polygon fill="none" stroke="#000000" points="1915.6789,-756 1841.6817,-738 1915.6789,-720 1989.676,-738 1915.6789,-756"/>
<text text-anchor="middle" x="1915.6789" y="-734.9" font-family="Times,serif" font-size="12.00" fill="#000000">oesnmalloc</text>
</g>
<!-- node2875 -->
<g id="node46" class="node">
<title>node2875</title>
<polygon fill="none" stroke="#000000" points="1970.6789,-684 1860.6789,-684 1860.6789,-648 1970.6789,-648 1970.6789,-684"/>
<text text-anchor="middle" x="1915.6789" y="-662.9" font-family="Times,serif" font-size="12.00" fill="#000000">oesnmalloc_obj</text>
</g>
<!-- node2877&#45;&gt;node2875 -->
<g id="edge67" class="edge">
<title>node2877&#45;&gt;node2875</title>
<path fill="none" stroke="#000000" d="M1915.6789,-719.8314C1915.6789,-712.131 1915.6789,-702.9743 1915.6789,-694.4166"/>
<polygon fill="#000000" stroke="#000000" points="1919.179,-694.4132 1915.6789,-684.4133 1912.179,-694.4133 1919.179,-694.4132"/>
</g>
<!-- node2739 -->
<g id="node47" class="node">
<title>node2739</title>
<polygon fill="none" stroke="#000000" points="1597.0969,-167.5623 1547.6789,-180 1498.2609,-167.5623 1498.307,-147.4377 1597.0507,-147.4377 1597.0969,-167.5623"/>
<text text-anchor="middle" x="1547.6789" y="-158.9" font-family="Times,serif" font-size="12.00" fill="#000000">oeverify</text>
</g>
<!-- node2739&#45;&gt;node40 -->
<g id="edge68" class="edge">
<title>node2739&#45;&gt;node40</title>
<path fill="none" stroke="#000000" d="M1552.9404,-147.4297C1556.1564,-138.5239 1560.3658,-126.867 1564.1513,-116.384"/>
<polygon fill="#000000" stroke="#000000" points="1567.5,-117.4155 1567.6046,-106.8212 1560.9161,-115.0379 1567.5,-117.4155"/>
</g>
<!-- node2263 -->
<g id="node48" class="node">
<title>node2263</title>
<polygon fill="none" stroke="#000000" points="1239.6789,-396 1142.1709,-378 1239.6789,-360 1337.1869,-378 1239.6789,-396"/>
<text text-anchor="middle" x="1239.6789" y="-374.9" font-family="Times,serif" font-size="12.00" fill="#000000">openssl&#45;support</text>
</g>
<!-- node2263&#45;&gt;node14 -->
<g id="edge69" class="edge">
<title>node2263&#45;&gt;node14</title>
<path fill="none" stroke="#000000" stroke-dasharray="5,2" d="M1244.1309,-360.3973C1250.5594,-333.3921 1261.6789,-280.0279 1261.6789,-234 1261.6789,-234 1261.6789,-234 1261.6789,-162 1261.6789,-121.0614 1273.4434,-74.926 1282.2381,-46.1567"/>
<polygon fill="#000000" stroke="#000000" points="1285.65,-46.9746 1285.3166,-36.385 1278.9735,-44.8712 1285.65,-46.9746"/>
</g>
<!-- node2263&#45;&gt;node2904 -->
<g id="edge70" class="edge">
<title>node2263&#45;&gt;node2904</title>
<path fill="none" stroke="#000000" stroke-dasharray="5,2" d="M1196.6686,-367.9129C1136.7341,-353.8566 1028.9919,-328.5881 971.4267,-315.0874"/>
<polygon fill="#000000" stroke="#000000" points="972.1567,-311.6637 961.6217,-312.7879 970.5583,-318.4788 972.1567,-311.6637"/>
</g>
<!-- node1746 -->
<g id="node49" class="node">
<title>node1746</title>
<polygon fill="none" stroke="#000000" points="2051.6789,-756 2007.3803,-738 2051.6789,-720 2095.9774,-738 2051.6789,-756"/>
<text text-anchor="middle" x="2051.6789" y="-734.9" font-family="Times,serif" font-size="12.00" fill="#000000">rmdir</text>
</g>
<!-- node468 -->
<g id="node50" class="node">
<title>node468</title>
<polygon fill="none" stroke="#000000" points="466.2568,-743.5623 341.6789,-756 217.1009,-743.5623 217.2172,-723.4377 466.1406,-723.4377 466.2568,-743.5623"/>
<text text-anchor="middle" x="341.6789" y="-734.9" font-family="Times,serif" font-size="12.00" fill="#000000">snmalloc_enc_link_error</text>
</g>
<!-- node468&#45;&gt;node2780 -->
<g id="edge71" class="edge">
<title>node468&#45;&gt;node2780</title>
<path fill="none" stroke="#000000" d="M369.4029,-723.4297C390.8432,-712.1618 420.6632,-696.49 443.7366,-684.3638"/>
<polygon fill="#000000" stroke="#000000" points="445.6261,-687.3248 452.8499,-679.5744 442.3696,-681.1284 445.6261,-687.3248"/>
</g>
<!-- node468&#45;&gt;node2904 -->
<g id="edge74" class="edge">
<title>node468&#45;&gt;node2904</title>
<path fill="none" stroke="#000000" d="M337.2851,-723.3595C329.3495,-694.5318 314.7716,-628.642 329.6789,-576 337.3583,-548.8816 438.6984,-374.8094 462.6789,-360 540.4973,-311.9424 782.8548,-341.2301 872.6789,-324 881.1074,-322.3832 890.0409,-320.0528 898.3673,-317.6024"/>
<polygon fill="#000000" stroke="#000000" points="899.6188,-320.8793 908.1477,-314.5937 897.5606,-314.1887 899.6188,-320.8793"/>
</g>
<!-- node468&#45;&gt;node2764 -->
<g id="edge72" class="edge">
<title>node468&#45;&gt;node2764</title>
<path fill="none" stroke="#000000" d="M450.2801,-723.3966C458.8737,-722.2457 467.4193,-721.1027 475.6789,-720 596.1121,-703.9218 736.6126,-685.3134 817.0605,-674.6728"/>
<polygon fill="#000000" stroke="#000000" points="817.5921,-678.1331 827.0469,-673.3521 816.6743,-671.1935 817.5921,-678.1331"/>
</g>
<!-- node468&#45;&gt;node2749 -->
<g id="edge73" class="edge">
<title>node468&#45;&gt;node2749</title>
<path fill="none" stroke="#000000" d="M410.175,-723.4351C460.013,-712.7525 529.0931,-697.7695 589.6789,-684 599.5956,-681.7462 610.2248,-679.268 620.298,-676.8904"/>
<polygon fill="#000000" stroke="#000000" points="621.2154,-680.27 630.1388,-674.5583 619.6012,-673.4587 621.2154,-680.27"/>
</g>
<!-- node2075 -->
<g id="node51" class="node">
<title>node2075</title>
<polygon fill="none" stroke="#000000" points="1298.762,-743.5623 1121.6789,-756 944.5958,-743.5623 944.7611,-723.4377 1298.5967,-723.4377 1298.762,-743.5623"/>
<text text-anchor="middle" x="1121.6789" y="-734.9" font-family="Times,serif" font-size="12.00" fill="#000000">thread_local_enc_exported_stripped</text>
</g>
<!-- node2075&#45;&gt;node2780 -->
<g id="edge76" class="edge">
<title>node2075&#45;&gt;node2780</title>
<path fill="none" stroke="#000000" d="M973.5804,-723.4247C829.4675,-709.1674 626.8978,-688.9023 589.6789,-684 573.4899,-681.8677 556.0306,-679.2073 539.8592,-676.5915"/>
<polygon fill="#000000" stroke="#000000" points="540.4137,-673.1357 529.9795,-674.9736 539.2824,-680.0437 540.4137,-673.1357"/>
</g>
<!-- node2075&#45;&gt;node2764 -->
<g id="edge77" class="edge">
<title>node2075&#45;&gt;node2764</title>
<path fill="none" stroke="#000000" d="M1073.3137,-723.4297C1031.1375,-710.7239 970.3741,-692.4186 928.857,-679.9114"/>
<polygon fill="#000000" stroke="#000000" points="929.847,-676.5543 919.2624,-677.021 927.8278,-683.2568 929.847,-676.5543"/>
</g>
<!-- node2075&#45;&gt;node2749 -->
<g id="edge78" class="edge">
<title>node2075&#45;&gt;node2749</title>
<path fill="none" stroke="#000000" d="M1029.4005,-723.4297C935.8204,-708.6539 794.2803,-686.3055 718.305,-674.3094"/>
<polygon fill="#000000" stroke="#000000" points="718.4551,-670.7898 708.0316,-672.6873 717.3633,-677.7041 718.4551,-670.7898"/>
</g>
<!-- node2075&#45;&gt;node2914 -->
<g id="edge79" class="edge">
<title>node2075&#45;&gt;node2914</title>
<path fill="none" stroke="#000000" d="M1110.0113,-723.2228C1091.8804,-700.0371 1056.1698,-653.4701 1028.6789,-612 997.2483,-564.5869 964.1941,-506.786 946.2435,-474.6219"/>
<polygon fill="#000000" stroke="#000000" points="949.0928,-472.5438 941.176,-465.5029 942.9741,-475.9441 949.0928,-472.5438"/>
</g>
<!-- node3039 -->
<g id="node52" class="node">
<title>node3039</title>
<ellipse fill="none" stroke="#000000" cx="1163.6789" cy="-666" rx="27" ry="18"/>
<text text-anchor="middle" x="1163.6789" y="-662.9" font-family="Times,serif" font-size="12.00" fill="#000000">&#45;s</text>
</g>
<!-- node2075&#45;&gt;node3039 -->
<g id="edge75" class="edge">
<title>node2075&#45;&gt;node3039</title>
<path fill="none" stroke="#000000" d="M1130.1782,-723.4297C1135.4804,-714.3403 1142.4542,-702.3852 1148.6655,-691.7371"/>
<polygon fill="#000000" stroke="#000000" points="1151.851,-693.2225 1153.8665,-682.8212 1145.8045,-689.6954 1151.851,-693.2225"/>
</g>
<!-- node2073 -->
<g id="node53" class="node">
<title>node2073</title>
<polygon fill="none" stroke="#000000" points="1581.9747,-743.5623 1449.6789,-756 1317.383,-743.5623 1317.5065,-723.4377 1581.8512,-723.4377 1581.9747,-743.5623"/>
<text text-anchor="middle" x="1449.6789" y="-734.9" font-family="Times,serif" font-size="12.00" fill="#000000">thread_local_enc_stripped</text>
</g>
<!-- node2073&#45;&gt;node2780 -->
<g id="edge81" class="edge">
<title>node2073&#45;&gt;node2780</title>
<path fill="none" stroke="#000000" d="M1341.6153,-723.4348C1330.1708,-722.1514 1318.6943,-720.9729 1307.6789,-720 989.4059,-691.8897 907.4167,-717.6238 589.6789,-684 572.9584,-682.2306 554.9251,-679.6145 538.3548,-676.9216"/>
<polygon fill="#000000" stroke="#000000" points="538.6899,-673.4293 528.2513,-675.2418 537.5418,-680.3346 538.6899,-673.4293"/>
</g>
<!-- node2073&#45;&gt;node2764 -->
<g id="edge82" class="edge">
<title>node2073&#45;&gt;node2764</title>
<path fill="none" stroke="#000000" d="M1334.938,-723.4297C1219.1059,-708.7209 1044.1788,-686.5079 949.405,-674.4732"/>
<polygon fill="#000000" stroke="#000000" points="949.7323,-670.9867 939.3711,-673.199 948.8505,-677.9309 949.7323,-670.9867"/>
</g>
<!-- node2073&#45;&gt;node2749 -->
<g id="edge83" class="edge">
<title>node2073&#45;&gt;node2749</title>
<path fill="none" stroke="#000000" d="M1339.668,-723.4153C1328.8682,-722.1759 1318.0667,-721.0117 1307.6789,-720 1073.5749,-697.201 1013.4077,-710.3679 779.6789,-684 758.7393,-681.6377 735.7648,-678.1786 715.9612,-674.9224"/>
<polygon fill="#000000" stroke="#000000" points="716.3619,-671.4409 705.9218,-673.245 715.2083,-678.3452 716.3619,-671.4409"/>
</g>
<!-- node2073&#45;&gt;node2914 -->
<g id="edge84" class="edge">
<title>node2073&#45;&gt;node2914</title>
<path fill="none" stroke="#000000" d="M1423.33,-723.3221C1335.6976,-674.5056 1054.3827,-517.7964 962.2197,-466.456"/>
<polygon fill="#000000" stroke="#000000" points="963.8483,-463.3568 953.409,-461.5479 960.4417,-469.472 963.8483,-463.3568"/>
</g>
<!-- node2073&#45;&gt;node3039 -->
<g id="edge80" class="edge">
<title>node2073&#45;&gt;node3039</title>
<path fill="none" stroke="#000000" d="M1364.1034,-723.4243C1316.5421,-714.2605 1256.6463,-700.9516 1204.6789,-684 1201.5748,-682.9875 1198.3857,-681.8227 1195.223,-680.5828"/>
<polygon fill="#000000" stroke="#000000" points="1196.5029,-677.3245 1185.9256,-676.7154 1193.8144,-683.7877 1196.5029,-677.3245"/>
</g>
</g>
</svg>
